<mxfile host="app.diagrams.net" agent="Mozilla/5.0 (Windows NT 10.0; Win64; x64) AppleWebKit/537.36 (KHTML, like Gecko) Chrome/134.0.0.0 Safari/537.36" version="26.2.4">
  <diagram name="第 1 页" id="gqY4yBXmM6ABxalPm5BG">
    <mxGraphModel dx="1428" dy="751" grid="1" gridSize="10" guides="1" tooltips="1" connect="1" arrows="1" fold="1" page="1" pageScale="1" pageWidth="827" pageHeight="1169" math="0" shadow="0">
      <root>
        <mxCell id="0" />
        <mxCell id="1" parent="0" />
        <mxCell id="eT9MjZ331lHxNZE8mxAq-1" value="" style="ellipse;whiteSpace=wrap;html=1;aspect=fixed;fillColor=#f8cecc;strokeColor=#b85450;" vertex="1" parent="1">
          <mxGeometry x="100" y="220" width="200" height="200" as="geometry" />
        </mxCell>
        <mxCell id="eT9MjZ331lHxNZE8mxAq-2" value="A1" style="whiteSpace=wrap;html=1;aspect=fixed;fillColor=#f8cecc;strokeColor=#b85450;" vertex="1" parent="1">
          <mxGeometry x="140" y="260" width="50" height="50" as="geometry" />
        </mxCell>
        <mxCell id="eT9MjZ331lHxNZE8mxAq-3" value="A5" style="whiteSpace=wrap;html=1;aspect=fixed;fillColor=#f8cecc;strokeColor=#b85450;" vertex="1" parent="1">
          <mxGeometry x="140" y="330" width="50" height="50" as="geometry" />
        </mxCell>
        <mxCell id="eT9MjZ331lHxNZE8mxAq-4" value="A3" style="whiteSpace=wrap;html=1;aspect=fixed;fillColor=#f8cecc;strokeColor=#b85450;" vertex="1" parent="1">
          <mxGeometry x="210" y="260" width="50" height="50" as="geometry" />
        </mxCell>
        <mxCell id="eT9MjZ331lHxNZE8mxAq-5" value="A7" style="whiteSpace=wrap;html=1;aspect=fixed;fillColor=#f8cecc;strokeColor=#b85450;" vertex="1" parent="1">
          <mxGeometry x="210" y="330" width="50" height="50" as="geometry" />
        </mxCell>
        <mxCell id="eT9MjZ331lHxNZE8mxAq-11" value="" style="ellipse;whiteSpace=wrap;html=1;aspect=fixed;fillColor=#f8cecc;strokeColor=#b85450;" vertex="1" parent="1">
          <mxGeometry x="550" y="220" width="200" height="200" as="geometry" />
        </mxCell>
        <mxCell id="eT9MjZ331lHxNZE8mxAq-12" value="A1" style="whiteSpace=wrap;html=1;aspect=fixed;fillColor=#f8cecc;strokeColor=#b85450;" vertex="1" parent="1">
          <mxGeometry x="590" y="260" width="50" height="50" as="geometry" />
        </mxCell>
        <mxCell id="eT9MjZ331lHxNZE8mxAq-13" value="A5" style="whiteSpace=wrap;html=1;aspect=fixed;fillColor=#f8cecc;strokeColor=#b85450;" vertex="1" parent="1">
          <mxGeometry x="590" y="330" width="50" height="50" as="geometry" />
        </mxCell>
        <mxCell id="eT9MjZ331lHxNZE8mxAq-14" value="A3" style="whiteSpace=wrap;html=1;aspect=fixed;fillColor=#f8cecc;strokeColor=#b85450;" vertex="1" parent="1">
          <mxGeometry x="660" y="260" width="50" height="50" as="geometry" />
        </mxCell>
        <mxCell id="eT9MjZ331lHxNZE8mxAq-15" value="A7" style="whiteSpace=wrap;html=1;aspect=fixed;fillColor=#f8cecc;strokeColor=#b85450;" vertex="1" parent="1">
          <mxGeometry x="660" y="330" width="50" height="50" as="geometry" />
        </mxCell>
        <mxCell id="eT9MjZ331lHxNZE8mxAq-16" value="" style="shape=flexArrow;endArrow=classic;startArrow=classic;html=1;rounded=0;fillColor=#dae8fc;strokeColor=#6c8ebf;" edge="1" parent="1">
          <mxGeometry width="100" height="100" relative="1" as="geometry">
            <mxPoint x="310" y="320" as="sourcePoint" />
            <mxPoint x="540" y="320" as="targetPoint" />
          </mxGeometry>
        </mxCell>
      </root>
    </mxGraphModel>
  </diagram>
</mxfile>
